<svg width="80" height="62" viewBox="0 0 80 62" fill="none" xmlns="http://www.w3.org/2000/svg">
<path d="M9.5 35.6313L8.68228 36.0504C5.05621 37.9088 5.05622 43.0914 8.68228 44.9498L37.7195 59.8314C39.1513 60.5651 40.8487 60.5651 42.2805 59.8314L71.3177 44.9498C74.9438 43.0914 74.9438 37.9088 71.3177 36.0504L70.5 35.6313" stroke="#00C8FF" stroke-width="2"/>
<path d="M69 25L71.1659 26.083C74.8307 27.9154 74.8567 33.136 71.2103 35.0048L42.2805 49.8313C40.8487 50.5651 39.1513 50.5651 37.7195 49.8313L8.68229 34.9497C5.05623 33.0914 5.05622 27.9087 8.68228 26.0504L11 24.8625" stroke="#00C8FF" stroke-width="2"/>
<path d="M41.8244 2.05867L70.8616 16.9403C73.7625 18.4269 73.7625 22.573 70.8616 24.0597L41.8244 38.9413C40.679 39.5284 39.321 39.5284 38.1756 38.9413L9.13838 24.0597C6.23752 22.5731 6.23752 18.427 9.13837 16.9403L38.1756 2.05867C39.321 1.47164 40.679 1.47164 41.8244 2.05867Z" stroke="#00C8FF" stroke-width="2"/>
</svg>
